<svg xmlns="http://www.w3.org/2000/svg" width="102" height="35" viewBox="0 0 102 35">
    <path fill="#EAEAE5" fill-rule="evenodd" d="M43.668 1.346c.61.78.11 2.077-.527 2.696-.396.387-1.125.783-2.504 1.438-.464.221-1.23.797-1.528 1.024-1.477 1.137-2.551 3.7-3.744 6.509 0 0-.505 1.38-2.747 2.867-.375.247-.036.454.373.986.531.691 1.587 3.55 1.452 7.889-.024.768.286 1.102.635 1.73.61 1.09 1.805.852 1.775 2.274-.038 1.92 1.369 2.329.92 3.212-.33.647-.219 1.269-.216 1.896.001.32.173.787-.487.749-2.682-.159-2.503-3.775-2.455-5.017.046-.163-.08-.459-.1-.473-.129-.095-1.807-1.399-1.917-1.512-2.032-2.072-3.37-3.933-4.119-5.848-.496-1.272-1.006-2.536-1.876-3.338-.972-.899-2.176-1.398-3.225-1.404-7.47-.04-9.004-3.326-11.038-4.968-.058-.044-.245-.145-.356-.155-.11.01-.203.147-.273.206-.783.82-1.576 1.095-2.639 1.095-2.522 0-5.24-2.222-5.715-1.725-.365.385-.053 1.177-.72 1.311-.973.195-1.976-.766-1.894-1.58.145-1.459 1.632-1.885 2.936-2.03 1.079-.12 1.96.176 2.163.204.604.08.708-.65.607-1.125-.108-.507-.588-.615-1.083-.762-.603-.178-1.273.322-1.726.163-.53-.185-.566-.459-1.011-.848-.553-.487-1.2-.616-1.199-1.308 0-.631.769-.684.994-1.273.11-.287.076-.593.173-.768.263-.477.75-.453 1.145-.843.535-.53.799-1.557 1.08-1.6.28-.044.744.984 1.021.891.293-.097.704-.964 1.102-.913.172.02.846 1.386.846 1.386 5.482.277 12.231 6.925 13.104 7.598.42.325 2.189 2.164 5.43 3.59 1.331.585 2.668.833 3.906.744 1.659-.118 3.509-1.577 4.646-3.559 1.427-2.486 2.036-6.813 6.155-9.266.572-.342 1.884-1.11 2.636-.143zm54.205 9.611c1.013 0 1.879.287 2.598.86.719.574 1.175 1.43 1.367 2.566h-2.142c-.111-.446-.311-.814-.6-1.104-.289-.29-.696-.434-1.223-.434-.293 0-.554.051-.782.153-.228.101-.418.238-.57.41-.101.112-.184.24-.25.381-.066.142-.12.325-.16.548-.04.224-.07.505-.091.845-.02.34-.03.77-.03 1.287 0 .518.01.947.03 1.287.02.34.05.621.091.845.04.223.094.406.16.548.066.142.149.269.25.38.152.173.342.31.57.412.228.101.489.152.782.152.527 0 .934-.145 1.223-.434.289-.29.489-.657.6-1.104h2.142c-.192 1.137-.648 1.992-1.367 2.566-.72.573-1.585.86-2.598.86-.628 0-1.175-.1-1.64-.297-.466-.198-.886-.48-1.261-.845-.273-.274-.484-.558-.63-.853-.147-.294-.254-.616-.32-.967-.065-.35-.106-.733-.121-1.15-.015-.415-.023-.882-.023-1.4 0-.518.008-.984.023-1.4.015-.417.056-.8.121-1.15.066-.35.173-.673.32-.967.146-.294.357-.579.63-.853.375-.365.795-.647 1.26-.845.466-.198 1.013-.297 1.641-.297zm-12.699.092l3.95 10.84h-2.218l-.638-1.918H82.44l-.654 1.918H79.57l3.95-10.84h1.655zm-13.9 0c.558 0 1.054.089 1.49.266.435.178.802.416 1.1.716.3.3.527.65.684 1.05.157.401.236.83.236 1.287 0 .386-.053.733-.16 1.043-.106.31-.25.58-.433.814-.182.234-.392.434-.63.602-.238.167-.489.297-.752.388l2.415 4.674H72.78l-2.112-4.324h-1.519v4.324h-2.111V11.05h4.238zm-9.752 0v1.888h-2.825v8.952h-2.112v-8.952H53.76v-1.888h7.762zm22.832 3.212l-1.337 3.929h2.658l-1.321-3.929zm-13.2-1.324h-2.006v2.847h2.005c.466 0 .836-.132 1.11-.396.273-.264.41-.609.41-1.035 0-.427-.137-.77-.41-1.028-.274-.259-.644-.388-1.11-.388z"/>
</svg>
